<svg xmlns="http://www.w3.org/2000/svg" viewBox="0 0 130 106" width="130" height="106"><rect width="130" height="106" rx="11" fill="#edaa4a"/><rect x="14" y="13" width="36" height="80" rx="3" fill="#ffffff"/><rect x="19.0" y="24.2" width="25.9" height="6.0" rx="1.2" fill="#edaa4a"/><rect x="19.0" y="37.0" width="25.9" height="6.0" rx="1.2" fill="#edaa4a"/><rect x="19.0" y="49.8" width="25.9" height="6.0" rx="1.2" fill="#edaa4a"/><rect x="19.0" y="62.6" width="25.9" height="6.0" rx="1.2" fill="#edaa4a"/><circle cx="32.0" cy="87.4" r="2.0" fill="#edaa4a"/><path d="M64 28H98L114 44V88a4 4 0 0 1 -4 4H64a4 4 0 0 1 -4 -4V32a4 4 0 0 1 4 -4z" fill="#ffffff"/><path d="M98 28V44H114Z" fill="#edaa4a"/><text x="83.0" y="71.0" text-anchor="middle" font-family="Helvetica,Arial,sans-serif" font-size="30" font-weight="700" fill="#edaa4a">CA</text></svg>